P3
# 8-bit ppm - RGB
4 3
255
 15  15  17  46  46  48  50  50  52  14  13  18
 37  33  34  74  69  73  79  74  78  41  35  39
 74  63  67  64  53  57  58  47  51  65  54  60
